<?xml version="1.0" encoding="UTF-8"?>
<svg width="21px" height="21px" viewBox="0 0 21 21" version="1.1" xmlns="http://www.w3.org/2000/svg" xmlns:xlink="http://www.w3.org/1999/xlink">
    <title>Guidline</title>
    <g id="首页导航" stroke="none" stroke-width="1" fill="none" fill-rule="evenodd">
        <g id="Guidline" transform="translate(-1210.000000, -474.000000)">
            <rect fill="none" x="0" y="0" width="1366" height="760"></rect>
            <g id="编组-8" transform="translate(1210.666667, 475.000000)">
                <rect id="矩形" fill="#D8D8D8" opacity="0" x="0" y="0" width="20" height="20"></rect>
                <g id="编组-7" transform="translate(5.000000, 5.000000)" fill="#FFFFFF">
                    <path d="M9.11944172,7.86875314 L4.84000015,5.68040233 L0.541194717,7.87865511 L4.96238359,9.99844985 L5.1398713,9.99455111 L9.11944172,7.86875314 Z M4.84,6.13736364 L8.2408,7.876 L5.0424,9.58518182 L1.4584,7.86618182 L4.84,6.13736364 Z" id="矩形" fill-rule="nonzero" opacity="0.600000024"></path>
                    <polygon id="矩形" stroke="#FFFFFF" stroke-width="0.600000024" points="4.84000015 3.45454555 8.68000031 5.41818199 5.04727896 7.35870091 1 5.41818199"></polygon>
                    <path d="M9.11944172,2.95966203 L4.84000015,0.77131123 L0.541194717,2.96956401 L4.96238359,5.08935875 L5.1398713,5.08546001 L9.11944172,2.95966203 Z M4.84,1.22827273 L8.2408,2.96690909 L5.0424,4.67609091 L1.4584,2.95709091 L4.84,1.22827273 Z" id="矩形" fill-rule="nonzero" opacity="0.600000024"></path>
                </g>
                <path d="M16.6288969,3.61045362 L16.2719147,3.95357708 C14.771962,2.393045 12.7078274,1.49514615 10.4999855,1.49514615 L10.4999855,1 C12.843952,1 15.0365248,1.95376945 16.6288969,3.61045362 Z M16.7582079,15.2520236 L16.3937377,14.9168647 C17.7438875,13.4486416 18.5048578,11.5333663 18.5048534,9.49123277 C18.5046784,9.32804627 18.4996231,9.16546272 18.4897264,9.00362124 L18.98395,8.97339929 C18.9944511,9.14512461 18.9998143,9.31760962 19,9.49096675 C19,11.6586715 18.1916389,13.6932362 16.7582079,15.2520236 Z M5.1458274,16.1021128 L5.4579348,15.7177186 C6.87534479,16.8685763 8.63993723,17.5048707 10.5168439,17.5048544 C10.8442853,17.5041798 11.1692108,17.4838542 11.4904652,17.4442227 L11.5510894,17.9356435 C11.2100716,17.9777131 10.865242,17.9992839 10.5173562,18 C8.5253734,18 6.65079772,17.3240646 5.1458274,16.1021128 Z M3.57967096,4.56336659 L3.9825293,4.85124724 C3.01868663,6.20003918 2.49511475,7.81216049 2.49514576,9.52320421 C2.49654268,10.0160188 2.54245648,10.5029488 2.63160055,10.979952 L2.1448803,11.0709118 C2.05022339,10.5644099 2.00148319,10.0475049 2,9.5239106 C1.99996605,7.70826515 2.55618383,5.9956244 3.57967096,4.56336659 Z M10.4709838,1.00004846 L10.4726386,1.49519184 C9.81332613,1.49739534 9.1648498,1.57928439 8.53712778,1.73750209 L8.41611051,1.25737235 C9.0827833,1.08933709 9.77133978,1.00238675 10.4709838,1.00004846 Z" id="椭圆形" fill-opacity="0.4" fill="#FFFFFF" fill-rule="nonzero"></path>
                <circle id="椭圆形" fill="#FFFFFF" cx="4" cy="16" r="1"></circle>
                <circle id="椭圆形" fill="#FFFFFF" cx="3" cy="5" r="1"></circle>
                <circle id="椭圆形" fill="#FFFFFF" cx="17" cy="15" r="1"></circle>
                <circle id="椭圆形" fill="#FFFFFF" cx="16" cy="4" r="1"></circle>
            </g>
        </g>
    </g>
</svg>