<?xml version="1.0" encoding="UTF-8"?>
<svg width="20px" height="20px" viewBox="0 0 20 20" version="1.1" xmlns="http://www.w3.org/2000/svg" xmlns:xlink="http://www.w3.org/1999/xlink">
    <title>icon/op/模型推理</title>
    <g id="首页导航" stroke="none" stroke-width="1" fill="none" fill-rule="evenodd">
        <g id="Guidline" transform="translate(-1090.000000, -475.000000)">
            <g id="icon/op/模型推理" transform="translate(1090.000000, 475.000000)">
                <rect id="矩形" fill="#000000" fill-rule="nonzero" opacity="0" x="0" y="0" width="20" height="20"></rect>
                <path d="M9.5,2 C11.9204071,2 13.9907886,3.65814377 14.5507696,5.94510787 L14.5958738,6.14821918 L14.7715653,6.17666405 C16.5596591,6.50884197 17.9104342,8.03345281 17.9957204,9.8701202 L18,10.0547945 C18,12.1747828 16.321094,13.9042214 14.2152808,13.996156 L14.038835,14 L12.8009709,14 C12.6642402,14 12.5533981,13.8896045 12.5533981,13.7534247 C12.5533981,13.6366991 12.6348331,13.5389171 12.7442047,13.5133615 L12.8009709,13.5068493 L14.038835,13.5068493 C15.9530646,13.5068493 17.5048544,11.9613117 17.5048544,10.0547945 C17.5048544,8.26800334 16.1356562,6.7803031 14.3628856,6.61745482 C14.2506777,6.6071473 14.1596141,6.52267182 14.141331,6.41192878 C13.7703508,4.16486103 11.811462,2.49315068 9.5,2.49315068 C7.18832402,2.49315068 5.22968424,4.16505665 4.86038623,6.41175988 C4.84216929,6.52258654 4.75106379,6.60715327 4.63878322,6.61745816 C2.86459623,6.78028944 1.49514563,8.26774514 1.49514563,10.0547945 C1.49514563,11.9035385 2.95431249,13.4128489 4.78817572,13.5026246 L4.96116505,13.5068493 L6.19902913,13.5068493 C6.33575982,13.5068493 6.44660194,13.6172449 6.44660194,13.7534247 C6.44660194,13.8701502 6.36516691,13.9679322 6.2557953,13.9934878 L6.19902913,14 L4.96116505,14 C2.773474,14 1,12.2336713 1,10.0547945 C1,8.13613448 2.3810059,6.51984533 4.22990053,6.17665426 L4.40495146,6.14821918 L4.40760729,6.13730534 C4.88114056,3.81633015 6.89878755,2.09515787 9.29911203,2.00381691 L9.5,2 Z" id="路径" fill="#FFFFFF" fill-rule="nonzero"></path>
                <path d="M8.78966248,16.516129 L8.78966248,17.116129 L4,17.116129 L4,16.516129 L8.78966248,16.516129 Z M15,16.516129 L15,17.116129 L10.3862166,17.116129 L10.3862166,16.516129 L15,16.516129 Z M9.94845644,12 L9.94845644,15.6081968 L9.34845644,15.6081968 L9.34845644,12 L9.94845644,12 Z" id="形状结合" fill="#FFFFFF" fill-rule="nonzero" opacity="0.600000024"></path>
                <path d="M13.4285714,9 L5.57142857,9 C4.70355254,9 4,9.67157288 4,10.5 C4,11.3284271 4.70355254,12 5.57142857,12 L13.4285714,12 C14.2964475,12 15,11.3284271 15,10.5 C15,9.67157288 14.2964475,9 13.4285714,9 Z M5.57142857,9.5 L13.4285714,9.5 C14.0071555,9.5 14.4761905,9.94771525 14.4761905,10.5 C14.4761905,11.0522847 14.0071555,11.5 13.4285714,11.5 L5.57142857,11.5 C4.99284455,11.5 4.52380952,11.0522847 4.52380952,10.5 C4.52380952,9.94771525 4.99284455,9.5 5.57142857,9.5 Z" id="矩形" fill="#FFFFFF" fill-rule="nonzero" opacity="0.600000024"></path>
                <rect id="矩形" fill="#FFFFFF" x="3" y="16" width="3" height="3"></rect>
                <rect id="矩形" fill="#FFFFFF" x="14" y="16" width="2" height="3"></rect>
                <rect id="矩形" stroke="#FFFFFF" x="8.5" y="15.5" width="3" height="3"></rect>
            </g>
        </g>
    </g>
</svg>