<?xml version="1.0" encoding="UTF-8"?>
<svg width="22px" height="20px" viewBox="0 0 22 20" version="1.1" xmlns="http://www.w3.org/2000/svg" xmlns:xlink="http://www.w3.org/1999/xlink">
    <title>icon-人工标注 1</title>
    <g id="首页导航" stroke="none" stroke-width="1" fill="none" fill-rule="evenodd">
        <g id="Guidline" transform="translate(-941.000000, -477.000000)">
            <g id="icon-人工标注" transform="translate(941.666667, 477.000000)">
                <g id="图标/标注/默认">
                    <rect id="矩形" fill="#D8D8D8" opacity="0" x="0" y="0" width="21" height="20"></rect>
                    <polygon id="三角形" stroke="#FFFFFF" fill="#FFFFFF" stroke-linejoin="round" transform="translate(13.213388, 12.470537) rotate(-45.000000) translate(-13.213388, -12.470537) " points="13.0467217 9.01220388 16.630055 15.9288706 13.1821383 14.5642872 9.79672168 15.7622039"></polygon>
                </g>
                <path d="M6.625,1.73913043 C6.87045989,1.73913043 7.07460837,1.89293492 7.11694433,2.09576032 L7.125,2.17391304 L7.125,5.21713043 L10.0625,5.2173913 C10.3041246,5.2173913 10.5,5.44124893 10.5,5.7173913 C10.5,5.96285119 10.3452342,6.16699967 10.1411412,6.20933563 L10.0625,6.2173913 L7.125,6.21713043 L7.125,9.13043478 C7.125,9.37055859 6.90114237,9.56521739 6.625,9.56521739 C6.37954011,9.56521739 6.17539163,9.4114129 6.13305567,9.20858751 L6.125,9.13043478 L6.125,6.21713043 L3.0625,6.2173913 C2.82087542,6.2173913 2.625,5.99353368 2.625,5.7173913 C2.625,5.47193142 2.77976577,5.26778293 2.98385882,5.22544697 L3.0625,5.2173913 L6.125,5.21713043 L6.125,2.17391304 C6.125,1.93378924 6.34885763,1.73913043 6.625,1.73913043 Z" id="形状结合" fill="#FFFFFF" fill-rule="nonzero"></path>
                <path d="M12.6704164,6.2173913 L12.9095866,6.2173913 C13.1417761,6.2173913 13.330003,5.99353368 13.330003,5.7173913 C13.330003,5.44124893 13.1417761,5.2173913 12.9095866,5.2173913 L12.6704164,5.2173913 C12.4382268,5.2173913 12.25,5.44124893 12.25,5.7173913 C12.25,5.99353368 12.4382268,6.2173913 12.6704164,6.2173913 Z M15.1929149,6.2173913 L15.4320851,6.2173913 C15.6642747,6.2173913 15.8525015,5.99353368 15.8525015,5.7173913 C15.8525015,5.44124893 15.6642747,5.2173913 15.4320851,5.2173913 L15.1929149,5.2173913 C14.9607253,5.2173913 14.7724985,5.44124893 14.7724985,5.7173913 C14.7724985,5.99353368 14.9607253,6.2173913 15.1929149,6.2173913 Z M17.7154134,6.2173913 L17.9545836,6.2173913 C18.1867732,6.2173913 18.375,5.99353368 18.375,5.7173913 C18.375,5.44124893 18.1867732,5.2173913 17.9545836,5.2173913 L17.7154134,5.2173913 C17.4832239,5.2173913 17.294997,5.44124893 17.294997,5.7173913 C17.294997,5.99353368 17.4832239,6.2173913 17.7154134,6.2173913 Z" id="路径-2" fill="#FFFFFF" fill-rule="nonzero" opacity="0.600000024"></path>
                <path d="M6.125,11.7296015 L6.125,11.8630071 C6.125,12.0978682 6.34885763,12.2882608 6.625,12.2882608 C6.90114237,12.2882608 7.125,12.0978682 7.125,11.8630071 L7.125,11.7296015 C7.125,11.4947404 6.90114237,11.3043478 6.625,11.3043478 C6.34885763,11.3043478 6.125,11.4947404 6.125,11.7296015 Z M6.125,14.2811232 L6.125,14.4145289 C6.125,14.64939 6.34885763,14.8397826 6.625,14.8397826 C6.90114237,14.8397826 7.125,14.64939 7.125,14.4145289 L7.125,14.2811232 C7.125,14.0462622 6.90114237,13.8558696 6.625,13.8558696 C6.34885763,13.8558696 6.125,14.0462622 6.125,14.2811232 Z M6.125,16.832645 L6.125,16.9660507 C6.125,17.2009118 6.34885763,17.3913043 6.625,17.3913043 C6.90114237,17.3913043 7.125,17.2009118 7.125,16.9660507 L7.125,16.832645 C7.125,16.5977839 6.90114237,16.4073914 6.625,16.4073914 C6.34885763,16.4073914 6.125,16.5977839 6.125,16.832645 Z" id="路径-2" fill="#FFFFFF" fill-rule="nonzero" opacity="0.600000024"></path>
            </g>
        </g>
    </g>
</svg>