<?xml version="1.0" encoding="UTF-8"?>
<svg width="20px" height="20px" viewBox="0 0 20 20" version="1.1" xmlns="http://www.w3.org/2000/svg" xmlns:xlink="http://www.w3.org/1999/xlink">
    <title>icon/op/模型训练</title>
    <g id="首页导航" stroke="none" stroke-width="1" fill="none" fill-rule="evenodd">
        <g id="Guidline" transform="translate(-1016.000000, -476.000000)">
            <g id="icon/op/模型训练" transform="translate(1016.000000, 476.000000)">
                <path d="M0,0 L20,0 L20,20 L0,20 L0,0 Z" id="24" fill-opacity="0" fill="#D8D8D8"></path>
                <polygon id="路径-5" fill-opacity="0.4" fill="#FFFFFF" fill-rule="nonzero" transform="translate(12.924991, 3.744712) rotate(116.000000) translate(-12.924991, -3.744712) " points="13.0249905 0.411378245 13.0249905 7.07804491 12.4249905 7.07804491 12.4249905 0.411378245"></polygon>
                <polygon id="路径-5" fill-opacity="0.4" fill="#FFFFFF" fill-rule="nonzero" transform="translate(7.575009, 3.744712) scale(-1, 1) rotate(116.000000) translate(-7.575009, -3.744712) " points="7.67500948 0.411378245 7.67500948 7.07804491 7.07500948 7.07804491 7.07500948 0.411378245"></polygon>
                <polygon id="路径-5" fill-opacity="0.4" fill="#FFFFFF" fill-rule="nonzero" transform="translate(7.091657, 13.744712) rotate(116.000000) translate(-7.091657, -13.744712) " points="7.19165719 10.4113782 7.19165719 17.0780449 6.59165719 17.0780449 6.59165719 10.4113782"></polygon>
                <polygon id="路径-5" fill-opacity="0.4" fill="#FFFFFF" fill-rule="nonzero" transform="translate(7.091657, 7.078045) rotate(116.000000) translate(-7.091657, -7.078045) " points="7.19165719 3.74471158 7.19165719 10.4113782 6.59165719 10.4113782 6.59165719 3.74471158"></polygon>
                <polygon id="路径-5" fill-opacity="0.4" fill="#FFFFFF" fill-rule="nonzero" transform="translate(13.408343, 7.078045) scale(-1, 1) rotate(116.000000) translate(-13.408343, -7.078045) " points="13.5083428 3.74471158 13.5083428 10.4113782 12.9083428 10.4113782 12.9083428 3.74471158"></polygon>
                <path d="M13.0249905,12.9113782 L13.0249905,12.0780449 C13.0249905,11.9399737 12.8906759,11.8280449 12.7249905,11.8280449 C12.5593051,11.8280449 12.4249905,11.9399737 12.4249905,12.0780449 L12.4249905,12.9113782 C12.4249905,13.0494494 12.5593051,13.1613782 12.7249905,13.1613782 C12.8906759,13.1613782 13.0249905,13.0494494 13.0249905,12.9113782 Z M13.0249905,9.57804491 L13.0249905,8.74471158 C13.0249905,8.60664039 12.8906759,8.49471158 12.7249905,8.49471158 C12.5593051,8.49471158 12.4249905,8.60664039 12.4249905,8.74471158 L12.4249905,9.57804491 C12.4249905,9.7161161 12.5593051,9.82804491 12.7249905,9.82804491 C12.8906759,9.82804491 13.0249905,9.7161161 13.0249905,9.57804491 Z" id="路径-5" fill-opacity="0.4" fill="#FFFFFF" fill-rule="nonzero" transform="translate(12.924991, 10.828045) rotate(116.000000) translate(-12.924991, -10.828045) "></path>
                <path d="M7.67500948,12.9113782 L7.67500948,12.0780449 C7.67500948,11.9399737 7.5406949,11.8280449 7.37500948,11.8280449 C7.20932405,11.8280449 7.07500948,11.9399737 7.07500948,12.0780449 L7.07500948,12.9113782 C7.07500948,13.0494494 7.20932405,13.1613782 7.37500948,13.1613782 C7.5406949,13.1613782 7.67500948,13.0494494 7.67500948,12.9113782 Z M7.67500948,9.57804491 L7.67500948,8.74471158 C7.67500948,8.60664039 7.5406949,8.49471158 7.37500948,8.49471158 C7.20932405,8.49471158 7.07500948,8.60664039 7.07500948,8.74471158 L7.07500948,9.57804491 C7.07500948,9.7161161 7.20932405,9.82804491 7.37500948,9.82804491 C7.5406949,9.82804491 7.67500948,9.7161161 7.67500948,9.57804491 Z" id="路径-5" fill-opacity="0.4" fill="#FFFFFF" fill-rule="nonzero" transform="translate(7.575009, 10.828045) scale(-1, 1) rotate(116.000000) translate(-7.575009, -10.828045) "></path>
                <polygon id="路径-5" fill-opacity="0.4" fill="#FFFFFF" fill-rule="nonzero" transform="translate(13.408343, 13.744712) scale(-1, 1) rotate(116.000000) translate(-13.408343, -13.744712) " points="13.5083428 10.4113782 13.5083428 17.0780449 12.9083428 17.0780449 12.9083428 10.4113782"></polygon>
                <rect id="矩形" fill="#FFFFFF" x="9" y="2" width="2" height="2"></rect>
                <rect id="矩形" fill="#FFFFFF" x="9" y="14" width="2" height="2"></rect>
                <rect id="矩形" fill="#FFFFFF" x="3" y="11" width="2" height="2"></rect>
                <rect id="矩形" fill="#FFFFFF" x="3" y="4" width="2" height="2"></rect>
                <rect id="矩形" fill="#FFFFFF" x="15" y="11" width="2" height="2"></rect>
                <rect id="矩形" fill="#FFFFFF" x="15" y="4" width="2" height="2"></rect>
                <rect id="矩形" fill="#FFFFFF" x="9" y="8" width="2" height="2"></rect>
                <path d="M10,4.26785714 L10,5.16071429 C10,5.3086477 10.1343146,5.42857143 10.3,5.42857143 C10.4656854,5.42857143 10.6,5.3086477 10.6,5.16071429 L10.6,4.26785714 C10.6,4.11992373 10.4656854,4 10.3,4 C10.1343146,4 10,4.11992373 10,4.26785714 Z M10,7.83928571 L10,8.73214286 C10,8.88007627 10.1343146,9 10.3,9 C10.4656854,9 10.6,8.88007627 10.6,8.73214286 L10.6,7.83928571 C10.6,7.6913523 10.4656854,7.57142857 10.3,7.57142857 C10.1343146,7.57142857 10,7.6913523 10,7.83928571 Z" id="路径-6" fill-opacity="0.4" fill="#FFFFFF" fill-rule="nonzero"></path>
                <polygon id="路径-5" fill-opacity="0.4" fill="#FFFFFF" fill-rule="nonzero" points="15.6 6 15.6 13 15 13 15 6"></polygon>
                <polygon id="路径-5" fill-opacity="0.4" fill="#FFFFFF" fill-rule="nonzero" points="4.6 6 4.6 13 4 13 4 6"></polygon>
                <polygon id="路径-5" fill-opacity="0.4" fill="#FFFFFF" fill-rule="nonzero" points="10.6 7 10.6 16 10 16 10 7"></polygon>
                <g id="编组-5" transform="translate(1.000000, 12.000000)">
                    <path d="M0.764950994,0.0509592004 C0.273740216,0.593728883 0,1.19719583 0,1.83294681 C0,3.49725805 1.87600336,4.94031947 4.61848584,5.6523744 M8.5,6.125 C13.1944204,6.125 17,4.20338233 17,1.83294681 C17,1.17722903 16.7087953,0.555855008 16.1881254,0" id="形状" stroke="#FFFFFF" fill-opacity="0" fill="#D8D8D8"></path>
                    <polygon id="路径-9" fill="#FFFFFF" points="4.09849971 4.11969579 5.99391768 6.125 3.4 6.64146401"></polygon>
                </g>
            </g>
        </g>
    </g>
</svg>