<?xml version="1.0" encoding="UTF-8"?>
<svg width="21px" height="20px" viewBox="0 0 21 20" version="1.1" xmlns="http://www.w3.org/2000/svg" xmlns:xlink="http://www.w3.org/1999/xlink">
    <title>icon/node/模型评测</title>
    <g id="首页导航" stroke="none" stroke-width="1" fill="none" fill-rule="evenodd">
        <g id="Guidline" transform="translate(-1149.000000, -475.000000)">
            <g id="icon/node/模型评测" transform="translate(1149.333333, 475.000000)">
                <path d="M0,0 L20,0 L20,20 L0,20 L0,0 Z" id="24" fill-opacity="0" fill="#D8D8D8"></path>
                <polygon id="路径-5" fill-opacity="0.4" fill="#FFFFFF" fill-rule="nonzero" transform="translate(13.583333, 4.065807) rotate(116.000000) translate(-13.583333, -4.065807) " points="13.6833333 -3.21520588e-13 13.6833333 8.13161364 13.0833333 8.13161364 13.0833333 -3.21520588e-13"></polygon>
                <polygon id="路径-5" fill-opacity="0.4" fill="#FFFFFF" fill-rule="nonzero" transform="translate(6.916667, 4.065807) scale(-1, 1) rotate(116.000000) translate(-6.916667, -4.065807) " points="7.01666667 -9.41469125e-14 7.01666667 8.13161364 6.41666667 8.13161364 6.41666667 -9.41469125e-14"></polygon>
                <polygon id="路径-5" fill-opacity="0.4" fill="#FFFFFF" fill-rule="nonzero" transform="translate(6.916667, 16.565807) rotate(116.000000) translate(-6.916667, -16.565807) " points="7.01666667 12.5 7.01666667 20.6316136 6.41666667 20.6316136 6.41666667 12.5"></polygon>
                <polygon id="路径-5" fill-opacity="0.4" fill="#FFFFFF" fill-rule="nonzero" transform="translate(13.583333, 16.565807) scale(-1, 1) rotate(116.000000) translate(-13.583333, -16.565807) " points="13.6833333 12.5 13.6833333 20.6316136 13.0833333 20.6316136 13.0833333 12.5"></polygon>
                <polygon id="路径-5" fill-opacity="0.4" fill="#FFFFFF" fill-rule="nonzero" transform="translate(6.916667, 8.232473) rotate(116.000000) translate(-6.916667, -8.232473) " points="7.01666667 4.16666667 7.01666667 12.2982803 6.41666667 12.2982803 6.41666667 4.16666667"></polygon>
                <polygon id="路径-5" fill-opacity="0.4" fill="#FFFFFF" fill-rule="nonzero" transform="translate(13.583333, 8.232473) scale(-1, 1) rotate(116.000000) translate(-13.583333, -8.232473) " points="13.6833333 4.16666667 13.6833333 12.2982803 13.0833333 12.2982803 13.0833333 4.16666667"></polygon>
                <rect id="矩形" fill="#FFFFFF" x="9" y="1" width="2" height="2"></rect>
                <rect id="矩形" fill="#FFFFFF" x="9" y="17" width="2" height="2"></rect>
                <rect id="矩形" fill="#FFFFFF" x="9" y="9" width="2" height="2"></rect>
                <rect id="矩形" fill="#FFFFFF" x="16" y="14" width="2" height="2"></rect>
                <rect id="矩形" fill="#FFFFFF" x="2" y="5" width="2" height="2"></rect>
                <rect id="矩形" fill="#FFFFFF" x="16" y="5" width="2" height="2"></rect>
                <polygon id="路径-6" fill-opacity="0.4" fill="#FFFFFF" fill-rule="nonzero" points="10.6 10 10.6 17 10 17 10 10"></polygon>
                <path d="M10,2.26785714 L10,3.16071429 C10,3.3086477 10.1343146,3.42857143 10.3,3.42857143 C10.4656854,3.42857143 10.6,3.3086477 10.6,3.16071429 L10.6,2.26785714 C10.6,2.11992373 10.4656854,2 10.3,2 C10.1343146,2 10,2.11992373 10,2.26785714 Z M10,5.83928571 L10,6.73214286 C10,6.88007627 10.1343146,7 10.3,7 C10.4656854,7 10.6,6.88007627 10.6,6.73214286 L10.6,5.83928571 C10.6,5.6913523 10.4656854,5.57142857 10.3,5.57142857 C10.1343146,5.57142857 10,5.6913523 10,5.83928571 Z" id="路径-6" fill-opacity="0.4" fill="#FFFFFF" fill-rule="nonzero"></path>
                <polygon id="路径-5" fill="#FFFFFF" fill-rule="nonzero" points="15.4579936 9 16 9.6373269 10.4763847 15 7.47066484 12.0538486 4.55350275 14.9994611 4 14.3735155 7.46327104 10.8774028 10.4793176 13.8329563"></polygon>
                <polygon id="三角形" fill="#FFFFFF" transform="translate(15.000000, 10.000000) rotate(45.000000) translate(-15.000000, -10.000000) " points="15 8.33333333 16.6666667 11.6666667 13.3333333 11.6666667"></polygon>
                <polygon id="路径-5" fill-opacity="0.4" fill="#FFFFFF" fill-rule="nonzero" points="3.6 6 3.6 14 3 14 3 6"></polygon>
                <line x1="16.5" y1="14" x2="16.5" y2="6" id="路径-5" stroke-opacity="0.4" stroke="#FFFFFF" stroke-width="0.6"></line>
                <rect id="矩形" fill="#FFFFFF" x="2" y="14" width="2" height="2"></rect>
            </g>
        </g>
    </g>
</svg>